<svg width="300" height="300" viewBox="0 0 300 300" fill="none" xmlns="http://www.w3.org/2000/svg">
<path fill-rule="evenodd" clip-rule="evenodd" d="M150 300C232.843 300 300 232.843 300 150C300 67.1573 232.843 0 150 0C67.1573 0 0 67.1573 0 150C0 232.843 67.1573 300 150 300ZM191.534 82.2926L185.49 82.2926L124.011 242.656L129.751 242.656L191.534 82.2926ZM193.602 82.2926L199.645 82.2926L137.862 242.656L132.122 242.656L193.602 82.2926ZM207.747 82.2926L201.704 82.2926L140.225 242.656L145.965 242.656L207.747 82.2926ZM209.807 82.2926L215.85 82.2926L154.067 242.656L148.327 242.656L209.807 82.2926ZM223.961 82.2602L217.918 82.2603L156.438 242.623L162.179 242.623L223.961 82.2602ZM226.011 82.2603L232.055 82.2602L170.272 242.623L164.532 242.623L226.011 82.2603ZM240.167 82.2602L234.123 82.2603L172.644 242.623L178.384 242.623L240.167 82.2602ZM242.225 82.2603L248.269 82.2602L186.486 242.623L180.746 242.623L242.225 82.2603ZM177.349 82.2928H183.393L121.61 242.656H115.87L115.879 242.633H115.875L51.8646 82.5061L120.087 82.5061L149.2 155.719L177.349 82.2928ZM118.693 235.293L60.163 88.0516H116.211L146.297 163.289L118.693 235.293Z" fill="#48CAE4"/>
</svg>
